<svg width="25" height="27" viewBox="0 0 25 27" fill="none" xmlns="http://www.w3.org/2000/svg">
<path d="M23.1701 11.635L11.8133 22.449C10.7656 23.4466 9.34467 24.007 7.86306 24.007C6.38144 24.007 4.96051 23.4466 3.91286 22.449C2.8652 21.4514 2.27663 20.0984 2.27663 18.6876C2.27663 17.2768 2.8652 15.9238 3.91286 14.9262L16.2572 3.1719C16.912 2.54841 17.8001 2.19814 18.7261 2.19814C19.6521 2.19814 20.5402 2.54841 21.195 3.1719C21.8498 3.79539 22.2176 4.64102 22.2176 5.52276C22.2176 6.40451 21.8498 7.25014 21.195 7.87362L10.8257 17.7473C10.5638 17.9966 10.2086 18.1368 9.83815 18.1368C9.46775 18.1368 9.11252 17.9966 8.85061 17.7473C8.58869 17.4979 8.44155 17.1596 8.44155 16.8069C8.44155 16.4542 8.58869 16.116 8.8506 15.8666L18.2323 6.93328L16.751 5.52276L7.36928 14.456C6.71449 15.0795 6.34664 15.9252 6.34664 16.8069C6.34664 17.6886 6.71449 18.5343 7.36928 19.1578C8.02407 19.7813 8.91215 20.1315 9.83815 20.1315C10.7642 20.1315 11.6522 19.7813 12.307 19.1578L22.6763 9.28414C23.724 8.28656 24.3125 6.93355 24.3125 5.52276C24.3125 4.11197 23.724 2.75896 22.6763 1.76138C21.6286 0.763801 20.2077 0.203366 18.7261 0.203366C17.2445 0.203366 15.8236 0.763801 14.7759 1.76138L2.43153 13.5157C0.991 14.8874 0.181719 16.7478 0.181719 18.6876C0.181719 20.6274 0.991001 22.4878 2.43153 23.8595C3.87206 25.2312 5.82584 26.0018 7.86306 26.0018C9.90027 26.0018 11.854 25.2312 13.2946 23.8595L24.6514 13.0455L23.1701 11.635Z" fill="#888888"/>
</svg>
